<?xml version="1.0" encoding="utf-8"?>
<!-- Generator: Adobe Illustrator 19.0.0, SVG Export Plug-In . SVG Version: 6.00 Build 0)  -->
<svg version="1.1" id="Layer_1" xmlns="http://www.w3.org/2000/svg" xmlns:xlink="http://www.w3.org/1999/xlink" x="0px" y="0px"
	 viewBox="0 0 496.1 538.6" style="enable-background:new 0 0 496.1 538.6;" xml:space="preserve">
<style type="text/css">
	.st0{fill:#FFFFFF;stroke:#1D1D1B;stroke-width:3;stroke-miterlimit:10;}
	.st1{fill:#BFDD90;stroke:#000000;stroke-width:1.4864;stroke-miterlimit:10;}
	.st2{fill:none;stroke:#000000;stroke-width:3.1168;stroke-linecap:round;stroke-miterlimit:10;}
	.st3{fill:#D9EABE;stroke:#000000;stroke-width:1.5584;stroke-miterlimit:10;}
	.st4{fill:#FFFFFF;stroke:#000000;stroke-width:1.5584;stroke-miterlimit:10;}
	.st5{fill:none;stroke:#000000;stroke-width:1.5584;stroke-miterlimit:10;}
	.st6{fill:#FFFFFF;stroke:#000000;stroke-width:1.8049;stroke-miterlimit:10;}
	.st7{fill:#020202;stroke:#000000;stroke-width:1.8049;stroke-miterlimit:10;}
	.st8{fill:#020202;stroke:#000000;stroke-width:1.4864;stroke-miterlimit:10;}
	.st9{fill:none;stroke:#000000;stroke-width:1.1688;stroke-linecap:round;stroke-miterlimit:10;}
	.st10{fill:url(#SVGID_1_);}
	.st11{fill:#D9EABE;}
</style>
<g>
	<circle class="st0" cx="248.2" cy="269.4" r="115.2"/>
	<g>
		<path class="st1" d="M230.4,233.6c0,0-1.1-7.6,2.9-14.1c4.1-6.8,11.5-9.8,11.5-9.8s0.9,6,4.3,7.5c3.5,1.5,11.5,0.4,11.5,0.4
			s1.3,2.6,4.3,3.8c1.3,0.5,6.6,0.7,6.6,0.7s0.4,2.9,3.7,4.7c1.7,0.9,5.4,2,5.4,2s-1.7,1.5-3.6,4.2c-0.8,1.1-2.5,4.9-2.5,4.9"/>
		<path class="st1" d="M278.4,316.8c0,0,0.5,0.2,6.5,1.1c5.7,0.8,9.8,0.4,9.8,0.4s-1.9,1.5-2.5,2.5c-0.6,1,0.1,2.9,0.1,2.9
			s-2.6,1.7-3.5,3.5c-0.5,0.9,0.2,3,0.2,3s-1.3,0.4-2,1.4c-0.5,0.7-0.1,2.4-0.1,2.4s-2.1-2-7.1-4.9c-3.9-2.3-7.5-3.8-7.5-3.8"/>
		<g>
			<path class="st2" d="M231.6,238.9c0,0-7-26.6-21.2-37.6c-16.4-12.7-32.5,12.1-32.5,12.1"/>
			<g>
				<path class="st3" d="M342.4,297.6c0,0-13.2-6.3-19.9-3.8c-3.7,1.4-9.2,5.3-11.9,7.6c-2.1,1.8-13.7,11.8-20.1,16.4
					c-12.4,9-29.6,14.6-48.6,14.6s-36.2-5.6-48.6-14.6c-11.7-8.4-19.2-19.9-20-32.6c0-0.4,0.2-2.1,1.6-2.1c4.1,0,15,3.2,26,3.1
					c14-0.1,28.1-3.5,28.1-3.6c0-0.1-14.8,3-27.9,2.9c-10.2-0.1-19.4-3.4-19.4-3.5c0.2-13.5,7.8-27.3,20-36.2
					c9.4-7,25-12.1,38.4-13.7c24.3-2.6,37.9,6.3,50.3,15.3c6.8,4.9,19.8,16.5,21.1,17.5c3.3,2.2,7.5,6.5,18.5,0
					c7.5-4.4,15.1-7.2,15.1-7.2s-4.1,3.5-4.5,8.5c-0.2,1.9,1.4,4.5,1.4,4.5s-3.2,1.8-3.2,4c0,2.6,3,3.8,3,3.8s-3.1,2.4-3.1,4.9
					c0,3.6,3.3,5.2,3.3,5.2s-2.4,1.5-2.1,4.3C340.4,295.2,342.4,297.6,342.4,297.6z"/>
				<g>
					<path class="st4" d="M182.7,284.2c0,0-2.9-6.9-3.5-10.7c-0.4-2.5-0.3,9.9-0.3,9.9"/>
					<path class="st4" d="M187.4,284.9c0,0-1.8-3.1-2.3-5.5c-0.3-1.3,0,5.4,0,5.4"/>
					<path class="st4" d="M194.9,285.6c0,0-3.8-8.8-4.4-12.5c-0.5-3.1,0.8,12.6,0.8,12.6"/>
					<path class="st4" d="M201.5,286c0,0-4.8-7.6-5.8-9.7c-1.1-2.3,2.6,9.9,2.6,9.9"/>
					<path class="st4" d="M213,284.8c0,0-2.4-3-2.7-3.2c-0.7-0.6,0.7,3.6,0.7,3.6"/>
					<path class="st5" d="M173.7,289c-0.2-1.3-0.4-2.5-0.5-3.8c0-0.4,0.2-2.1,1.6-2.1c4.1,0,15,3.2,26,3.1c14-0.1,28.1-3.5,28.1-3.6
						"/>
				</g>
			</g>
			<g>
				
					<ellipse transform="matrix(0.9546 0.2979 -0.2979 0.9546 85.163 -45.2555)" class="st6" cx="191" cy="256.7" rx="10.3" ry="10.7"/>
				
					<ellipse transform="matrix(0.9546 0.2979 -0.2979 0.9546 85.9844 -50.1663)" class="st6" cx="207.6" cy="257" rx="14.7" ry="15.2"/>
				<circle class="st7" cx="203" cy="258.8" r="3"/>
				<circle class="st8" cx="185.8" cy="258.8" r="2.5"/>
			</g>
		</g>
		<path class="st4" d="M314.5,268.4"/>
		<path class="st9" d="M258.2,220.2c0,0-3.8,2.2-5.5,4.2c-2,2.3-3,5.7-3,5.7"/>
		<path class="st9" d="M268.6,224.1c0,0-2.7,1.5-3.9,3c-1.4,1.6-2.2,4.1-2.2,4.1"/>
		<path class="st9" d="M242,213c0,0-5.2,3.4-7.9,8.9c-2.1,4.4-2.1,9.8-2.1,9.8"/>
		<radialGradient id="SVGID_1_" cx="176.6707" cy="215.6407" r="13.8259" gradientUnits="userSpaceOnUse">
			<stop  offset="0" style="stop-color:#F7931E"/>
			<stop  offset="0.4328" style="stop-color:#FCEE21;stop-opacity:0.8"/>
			<stop  offset="0.4594" style="stop-color:#FCF01D;stop-opacity:0.7625"/>
			<stop  offset="0.6119" style="stop-color:#FEF80D;stop-opacity:0.5474"/>
			<stop  offset="0.7814" style="stop-color:#FFFD03;stop-opacity:0.3084"/>
			<stop  offset="1" style="stop-color:#FFFF00;stop-opacity:0"/>
		</radialGradient>
		<circle class="st10" cx="176.7" cy="215.6" r="13.8"/>
		<path class="st5" d="M312,299.9"/>
		<path class="st5" d="M310.6,301.4"/>
		<path class="st1" d="M249.6,274c0,0,3.4-0.5,9.2-2.3c5.5-1.7,9-3.8,9-3.8s-1.1,2.2-1.2,3.3c-0.1,1.2,1.3,2.6,1.3,2.6
			s-1.6,2.7-1.6,4.7c0,1.1,1.4,2.6,1.4,2.6s-1,0.9-1.2,2.1c-0.1,0.9,0.9,2.2,0.9,2.2s-2.8-0.9-8.5-1.4c-4.5-0.4-8.4-0.2-8.4-0.2"/>
		<g>
			<path class="st1" d="M313.2,266.2"/>
			<path class="st1" d="M312.8,299.7c-0.1,0-0.1,0.1-0.2,0.1l2-3c3.4-4.5,5.7-9.3,5.7-14.2c0-4.5-1.9-8.9-4.9-13.1"/>
			<path class="st1" d="M313.2,266.2l-0.2-0.4c3.2,2.2,7.6,4.7,17.1-1c7.5-4.4,15.1-7.2,15.1-7.2s-4.1,3.5-4.5,8.5
				c-0.2,1.9,1.4,4.5,1.4,4.5s-3.2,1.8-3.2,4c0,2.6,3,3.8,3,3.8s-3.1,2.4-3.1,4.9c0,3.6,3.3,5.2,3.3,5.2s-2.4,1.5-2.1,4.3
				c0.3,2.1,2.2,4.6,2.2,4.6s-13.2-6.3-19.9-3.8c-2.9,1.1-6.9,3.7-9.7,5.9"/>
		</g>
		<path class="st9" d="M324.3,274.2c0,0,1.5-0.9,6.4-2.3c4.1-1.1,7.2-1.1,7.2-1.1"/>
		<path class="st9" d="M324.7,280.3c0,0,2.9,0.5,6-0.1c3.4-0.7,5.8-0.8,5.8-0.8"/>
		<path class="st9" d="M325,286.5c0,0,2.7,0.1,5.9,0.7c3.9,0.6,5.8,1.6,5.8,1.6"/>
		<path class="st11" d="M320.1,284.4c-0.8,8.9-6.6,15-11.3,17.1c-5.1,2.3-9.4-9.3-9.4-18.7c0-9.3,5.6-20.1,10.8-17.9
			C314.8,266.9,320.9,275.1,320.1,284.4z"/>
		<path class="st9" d="M314.6,296.8c3.4-4.5,5.7-9.3,5.7-14.2c0-4.5-1.9-8.9-4.9-13.1"/>
	</g>
</g>
</svg>
