<?xml version="1.0" encoding="UTF-8" standalone="no"?>
<!-- Generator: Adobe Illustrator 19.0.0, SVG Export Plug-In . SVG Version: 6.00 Build 0)  -->

<svg
   xmlns:dc="http://purl.org/dc/elements/1.1/"
   xmlns:cc="http://creativecommons.org/ns#"
   xmlns:rdf="http://www.w3.org/1999/02/22-rdf-syntax-ns#"
   xmlns:svg="http://www.w3.org/2000/svg"
   xmlns="http://www.w3.org/2000/svg"
   xmlns:sodipodi="http://sodipodi.sourceforge.net/DTD/sodipodi-0.dtd"
   xmlns:inkscape="http://www.inkscape.org/namespaces/inkscape"
   version="1.1"
   id="Layer_1"
   x="0px"
   y="0px"
   viewBox="0 0 233.39999 233.4"
   xml:space="preserve"
   sodipodi:docname="Anglerfish_logo.svg"
   width="233.39999"
   height="233.39999"
   inkscape:version="0.92.2 5c3e80d, 2017-08-06"><metadata
     id="metadata242"><rdf:RDF><cc:Work
         rdf:about=""><dc:format>image/svg+xml</dc:format><dc:type
           rdf:resource="http://purl.org/dc/dcmitype/StillImage" /><dc:title></dc:title></cc:Work></rdf:RDF></metadata><defs
     id="defs240" /><sodipodi:namedview
     pagecolor="#ffffff"
     bordercolor="#666666"
     borderopacity="1"
     objecttolerance="10"
     gridtolerance="10"
     guidetolerance="10"
     inkscape:pageopacity="0"
     inkscape:pageshadow="2"
     inkscape:window-width="1567"
     inkscape:window-height="952"
     id="namedview238"
     showgrid="false"
     inkscape:zoom="1.3516525"
     inkscape:cx="116.55"
     inkscape:cy="116.8"
     inkscape:window-x="0"
     inkscape:window-y="0"
     inkscape:window-maximized="0"
     inkscape:current-layer="Layer_1"
     fit-margin-top="0"
     fit-margin-left="0"
     fit-margin-right="0"
     fit-margin-bottom="0" /><style
     type="text/css"
     id="style146">
	.st0{fill:#FFFFFF;stroke:#1D1D1B;stroke-width:3;stroke-miterlimit:10;}
	.st1{fill:#BFDD90;stroke:#000000;stroke-width:1.4864;stroke-miterlimit:10;}
	.st2{fill:none;stroke:#000000;stroke-width:3.1168;stroke-linecap:round;stroke-miterlimit:10;}
	.st3{fill:#D9EABE;stroke:#000000;stroke-width:1.5584;stroke-miterlimit:10;}
	.st4{fill:#FFFFFF;stroke:#000000;stroke-width:1.5584;stroke-miterlimit:10;}
	.st5{fill:none;stroke:#000000;stroke-width:1.5584;stroke-miterlimit:10;}
	.st6{fill:#FFFFFF;stroke:#000000;stroke-width:1.8049;stroke-miterlimit:10;}
	.st7{fill:#020202;stroke:#000000;stroke-width:1.8049;stroke-miterlimit:10;}
	.st8{fill:#020202;stroke:#000000;stroke-width:1.4864;stroke-miterlimit:10;}
	.st9{fill:none;stroke:#000000;stroke-width:1.1688;stroke-linecap:round;stroke-miterlimit:10;}
	.st10{fill:url(#SVGID_1_);}
	.st11{fill:#D9EABE;}
</style><g
     id="g235"
     transform="translate(-131.5,-152.7)"><circle
       class="st0"
       cx="248.2"
       cy="269.39999"
       r="115.2"
       id="circle148"
       style="fill:#ffffff;stroke:#1d1d1b;stroke-width:3;stroke-miterlimit:10" /><g
       id="g233"><path
         class="st1"
         d="m 230.4,233.6 c 0,0 -1.1,-7.6 2.9,-14.1 4.1,-6.8 11.5,-9.8 11.5,-9.8 0,0 0.9,6 4.3,7.5 3.5,1.5 11.5,0.4 11.5,0.4 0,0 1.3,2.6 4.3,3.8 1.3,0.5 6.6,0.7 6.6,0.7 0,0 0.4,2.9 3.7,4.7 1.7,0.9 5.4,2 5.4,2 0,0 -1.7,1.5 -3.6,4.2 -0.8,1.1 -2.5,4.9 -2.5,4.9"
         id="path150"
         inkscape:connector-curvature="0"
         style="fill:#bfdd90;stroke:#000000;stroke-width:1.48640001;stroke-miterlimit:10" /><path
         class="st1"
         d="m 278.4,316.8 c 0,0 0.5,0.2 6.5,1.1 5.7,0.8 9.8,0.4 9.8,0.4 0,0 -1.9,1.5 -2.5,2.5 -0.6,1 0.1,2.9 0.1,2.9 0,0 -2.6,1.7 -3.5,3.5 -0.5,0.9 0.2,3 0.2,3 0,0 -1.3,0.4 -2,1.4 -0.5,0.7 -0.1,2.4 -0.1,2.4 0,0 -2.1,-2 -7.1,-4.9 -3.9,-2.3 -7.5,-3.8 -7.5,-3.8"
         id="path152"
         inkscape:connector-curvature="0"
         style="fill:#bfdd90;stroke:#000000;stroke-width:1.48640001;stroke-miterlimit:10" /><g
         id="g184"><path
           class="st2"
           d="m 231.6,238.9 c 0,0 -7,-26.6 -21.2,-37.6 -16.4,-12.7 -32.5,12.1 -32.5,12.1"
           id="path154"
           inkscape:connector-curvature="0"
           style="fill:none;stroke:#000000;stroke-width:3.11680007;stroke-linecap:round;stroke-miterlimit:10" /><g
           id="g172"><path
             class="st3"
             d="m 342.4,297.6 c 0,0 -13.2,-6.3 -19.9,-3.8 -3.7,1.4 -9.2,5.3 -11.9,7.6 -2.1,1.8 -13.7,11.8 -20.1,16.4 -12.4,9 -29.6,14.6 -48.6,14.6 -19,0 -36.2,-5.6 -48.6,-14.6 -11.7,-8.4 -19.2,-19.9 -20,-32.6 0,-0.4 0.2,-2.1 1.6,-2.1 4.1,0 15,3.2 26,3.1 14,-0.1 28.1,-3.5 28.1,-3.6 0,-0.1 -14.8,3 -27.9,2.9 -10.2,-0.1 -19.4,-3.4 -19.4,-3.5 0.2,-13.5 7.8,-27.3 20,-36.2 9.4,-7 25,-12.1 38.4,-13.7 24.3,-2.6 37.9,6.3 50.3,15.3 6.8,4.9 19.8,16.5 21.1,17.5 3.3,2.2 7.5,6.5 18.5,0 7.5,-4.4 15.1,-7.2 15.1,-7.2 0,0 -4.1,3.5 -4.5,8.5 -0.2,1.9 1.4,4.5 1.4,4.5 0,0 -3.2,1.8 -3.2,4 0,2.6 3,3.8 3,3.8 0,0 -3.1,2.4 -3.1,4.9 0,3.6 3.3,5.2 3.3,5.2 0,0 -2.4,1.5 -2.1,4.3 0.5,2.3 2.5,4.7 2.5,4.7 z"
             id="path156"
             inkscape:connector-curvature="0"
             style="fill:#d9eabe;stroke:#000000;stroke-width:1.55840003;stroke-miterlimit:10" /><g
             id="g170"><path
               class="st4"
               d="m 182.7,284.2 c 0,0 -2.9,-6.9 -3.5,-10.7 -0.4,-2.5 -0.3,9.9 -0.3,9.9"
               id="path158"
               inkscape:connector-curvature="0"
               style="fill:#ffffff;stroke:#000000;stroke-width:1.55840003;stroke-miterlimit:10" /><path
               class="st4"
               d="m 187.4,284.9 c 0,0 -1.8,-3.1 -2.3,-5.5 -0.3,-1.3 0,5.4 0,5.4"
               id="path160"
               inkscape:connector-curvature="0"
               style="fill:#ffffff;stroke:#000000;stroke-width:1.55840003;stroke-miterlimit:10" /><path
               class="st4"
               d="m 194.9,285.6 c 0,0 -3.8,-8.8 -4.4,-12.5 -0.5,-3.1 0.8,12.6 0.8,12.6"
               id="path162"
               inkscape:connector-curvature="0"
               style="fill:#ffffff;stroke:#000000;stroke-width:1.55840003;stroke-miterlimit:10" /><path
               class="st4"
               d="m 201.5,286 c 0,0 -4.8,-7.6 -5.8,-9.7 -1.1,-2.3 2.6,9.9 2.6,9.9"
               id="path164"
               inkscape:connector-curvature="0"
               style="fill:#ffffff;stroke:#000000;stroke-width:1.55840003;stroke-miterlimit:10" /><path
               class="st4"
               d="m 213,284.8 c 0,0 -2.4,-3 -2.7,-3.2 -0.7,-0.6 0.7,3.6 0.7,3.6"
               id="path166"
               inkscape:connector-curvature="0"
               style="fill:#ffffff;stroke:#000000;stroke-width:1.55840003;stroke-miterlimit:10" /><path
               class="st5"
               d="m 173.7,289 c -0.2,-1.3 -0.4,-2.5 -0.5,-3.8 0,-0.4 0.2,-2.1 1.6,-2.1 4.1,0 15,3.2 26,3.1 14,-0.1 28.1,-3.5 28.1,-3.6"
               id="path168"
               inkscape:connector-curvature="0"
               style="fill:none;stroke:#000000;stroke-width:1.55840003;stroke-miterlimit:10" /></g></g><g
           id="g182"><ellipse
             transform="matrix(0.9546,0.2979,-0.2979,0.9546,85.163,-45.2555)"
             class="st6"
             cx="191"
             cy="256.70001"
             rx="10.3"
             ry="10.7"
             id="ellipse174"
             style="fill:#ffffff;stroke:#000000;stroke-width:1.80490005;stroke-miterlimit:10" /><ellipse
             transform="matrix(0.9546,0.2979,-0.2979,0.9546,85.9844,-50.1663)"
             class="st6"
             cx="207.60001"
             cy="257"
             rx="14.7"
             ry="15.2"
             id="ellipse176"
             style="fill:#ffffff;stroke:#000000;stroke-width:1.80490005;stroke-miterlimit:10" /><circle
             class="st7"
             cx="203"
             cy="258.79999"
             r="3"
             id="circle178"
             style="fill:#020202;stroke:#000000;stroke-width:1.80490005;stroke-miterlimit:10" /><circle
             class="st8"
             cx="185.8"
             cy="258.79999"
             r="2.5"
             id="circle180"
             style="fill:#020202;stroke:#000000;stroke-width:1.48640001;stroke-miterlimit:10" /></g></g><path
         class="st4"
         d="M 314.5,268.4"
         id="path186"
         inkscape:connector-curvature="0"
         style="fill:#ffffff;stroke:#000000;stroke-width:1.55840003;stroke-miterlimit:10" /><path
         class="st9"
         d="m 258.2,220.2 c 0,0 -3.8,2.2 -5.5,4.2 -2,2.3 -3,5.7 -3,5.7"
         id="path188"
         inkscape:connector-curvature="0"
         style="fill:none;stroke:#000000;stroke-width:1.1688;stroke-linecap:round;stroke-miterlimit:10" /><path
         class="st9"
         d="m 268.6,224.1 c 0,0 -2.7,1.5 -3.9,3 -1.4,1.6 -2.2,4.1 -2.2,4.1"
         id="path190"
         inkscape:connector-curvature="0"
         style="fill:none;stroke:#000000;stroke-width:1.1688;stroke-linecap:round;stroke-miterlimit:10" /><path
         class="st9"
         d="m 242,213 c 0,0 -5.2,3.4 -7.9,8.9 -2.1,4.4 -2.1,9.8 -2.1,9.8"
         id="path192"
         inkscape:connector-curvature="0"
         style="fill:none;stroke:#000000;stroke-width:1.1688;stroke-linecap:round;stroke-miterlimit:10" /><radialGradient
         id="SVGID_1_"
         cx="176.6707"
         cy="215.6407"
         r="13.8259"
         gradientUnits="userSpaceOnUse"><stop
           offset="0"
           style="stop-color:#F7931E"
           id="stop194" /><stop
           offset="0.4328"
           style="stop-color:#FCEE21;stop-opacity:0.8"
           id="stop196" /><stop
           offset="0.4594"
           style="stop-color:#FCF01D;stop-opacity:0.7625"
           id="stop198" /><stop
           offset="0.6119"
           style="stop-color:#FEF80D;stop-opacity:0.5474"
           id="stop200" /><stop
           offset="0.7814"
           style="stop-color:#FFFD03;stop-opacity:0.3084"
           id="stop202" /><stop
           offset="1"
           style="stop-color:#FFFF00;stop-opacity:0"
           id="stop204" /></radialGradient><circle
         class="st10"
         cx="176.7"
         cy="215.60001"
         r="13.8"
         id="circle207"
         style="fill:url(#SVGID_1_)" /><path
         class="st5"
         d="M 312,299.9"
         id="path209"
         inkscape:connector-curvature="0"
         style="fill:none;stroke:#000000;stroke-width:1.55840003;stroke-miterlimit:10" /><path
         class="st5"
         d="M 310.6,301.4"
         id="path211"
         inkscape:connector-curvature="0"
         style="fill:none;stroke:#000000;stroke-width:1.55840003;stroke-miterlimit:10" /><path
         class="st1"
         d="m 249.6,274 c 0,0 3.4,-0.5 9.2,-2.3 5.5,-1.7 9,-3.8 9,-3.8 0,0 -1.1,2.2 -1.2,3.3 -0.1,1.2 1.3,2.6 1.3,2.6 0,0 -1.6,2.7 -1.6,4.7 0,1.1 1.4,2.6 1.4,2.6 0,0 -1,0.9 -1.2,2.1 -0.1,0.9 0.9,2.2 0.9,2.2 0,0 -2.8,-0.9 -8.5,-1.4 -4.5,-0.4 -8.4,-0.2 -8.4,-0.2"
         id="path213"
         inkscape:connector-curvature="0"
         style="fill:#bfdd90;stroke:#000000;stroke-width:1.48640001;stroke-miterlimit:10" /><g
         id="g221"><path
           class="st1"
           d="M 313.2,266.2"
           id="path215"
           inkscape:connector-curvature="0"
           style="fill:#bfdd90;stroke:#000000;stroke-width:1.48640001;stroke-miterlimit:10" /><path
           class="st1"
           d="m 312.8,299.7 c -0.1,0 -0.1,0.1 -0.2,0.1 l 2,-3 c 3.4,-4.5 5.7,-9.3 5.7,-14.2 0,-4.5 -1.9,-8.9 -4.9,-13.1"
           id="path217"
           inkscape:connector-curvature="0"
           style="fill:#bfdd90;stroke:#000000;stroke-width:1.48640001;stroke-miterlimit:10" /><path
           class="st1"
           d="m 313.2,266.2 -0.2,-0.4 c 3.2,2.2 7.6,4.7 17.1,-1 7.5,-4.4 15.1,-7.2 15.1,-7.2 0,0 -4.1,3.5 -4.5,8.5 -0.2,1.9 1.4,4.5 1.4,4.5 0,0 -3.2,1.8 -3.2,4 0,2.6 3,3.8 3,3.8 0,0 -3.1,2.4 -3.1,4.9 0,3.6 3.3,5.2 3.3,5.2 0,0 -2.4,1.5 -2.1,4.3 0.3,2.1 2.2,4.6 2.2,4.6 0,0 -13.2,-6.3 -19.9,-3.8 -2.9,1.1 -6.9,3.7 -9.7,5.9"
           id="path219"
           inkscape:connector-curvature="0"
           style="fill:#bfdd90;stroke:#000000;stroke-width:1.48640001;stroke-miterlimit:10" /></g><path
         class="st9"
         d="m 324.3,274.2 c 0,0 1.5,-0.9 6.4,-2.3 4.1,-1.1 7.2,-1.1 7.2,-1.1"
         id="path223"
         inkscape:connector-curvature="0"
         style="fill:none;stroke:#000000;stroke-width:1.1688;stroke-linecap:round;stroke-miterlimit:10" /><path
         class="st9"
         d="m 324.7,280.3 c 0,0 2.9,0.5 6,-0.1 3.4,-0.7 5.8,-0.8 5.8,-0.8"
         id="path225"
         inkscape:connector-curvature="0"
         style="fill:none;stroke:#000000;stroke-width:1.1688;stroke-linecap:round;stroke-miterlimit:10" /><path
         class="st9"
         d="m 325,286.5 c 0,0 2.7,0.1 5.9,0.7 3.9,0.6 5.8,1.6 5.8,1.6"
         id="path227"
         inkscape:connector-curvature="0"
         style="fill:none;stroke:#000000;stroke-width:1.1688;stroke-linecap:round;stroke-miterlimit:10" /><path
         class="st11"
         d="m 320.1,284.4 c -0.8,8.9 -6.6,15 -11.3,17.1 -5.1,2.3 -9.4,-9.3 -9.4,-18.7 0,-9.3 5.6,-20.1 10.8,-17.9 4.6,2 10.7,10.2 9.9,19.5 z"
         id="path229"
         inkscape:connector-curvature="0"
         style="fill:#d9eabe" /><path
         class="st9"
         d="m 314.6,296.8 c 3.4,-4.5 5.7,-9.3 5.7,-14.2 0,-4.5 -1.9,-8.9 -4.9,-13.1"
         id="path231"
         inkscape:connector-curvature="0"
         style="fill:none;stroke:#000000;stroke-width:1.1688;stroke-linecap:round;stroke-miterlimit:10" /></g></g></svg>